<?xml version="1.0" encoding="UTF-8"?>
<svg id="Layer_1" data-name="Layer 1" xmlns="http://www.w3.org/2000/svg" viewBox="0 0 1136.69 319.62">
  <defs>
    <style>
      .cls-1 {
        font-family: ITCAvantGardeStd-BkCnObl, 'ITC Avant Garde Gothic Std';
        font-size: 56.71px;
        font-style: oblique;
      }

      .cls-1, .cls-2 {
        fill: #231f20;
      }

      .cls-3 {
        fill: #ffcb04;
      }

      .cls-4 {
        letter-spacing: -.01em;
      }

      .cls-5 {
        letter-spacing: 0em;
      }

      .cls-6 {
        letter-spacing: 0em;
      }
    </style>
  </defs>
  <path class="cls-2" d="M170.97,278.42h-31.39V69.96h-29.73l-11.55-28.76h113.93l-10.85,28.76h-30.42v208.46Z"/>
  <g>
    <polygon class="cls-2" points="135.24 155.22 90.6 41.2 41.19 41.2 41.19 278.42 72.58 278.42 72.58 74.62 73.17 74.62 135.24 229.81 135.24 155.22"/>
    <polygon class="cls-2" points="219.93 41.2 175.3 154.69 175.3 229.71 237.09 74.62 237.97 74.62 237.97 278.42 269.35 278.42 269.35 41.2 219.93 41.2"/>
  </g>
  <path d="M0,0v319.62h310.56V0H0ZM283.1,292.15H27.46V27.46h255.64v264.69Z"/>
  <g>
    <path class="cls-2" d="M465.58,128.41h-13.97V47.55h-.39l-32.21,80.86h-8.41l-32.34-80.86h-.25v80.86h-13.97V32.66h21.99l28.73,73.37,28.84-73.37h21.99v95.75Z"/>
    <path class="cls-2" d="M548.78,32.66v64.83c0,10.19-3.23,18.37-9.71,24.58-6.54,5.43-14,8.16-22.38,8.16s-15.84-2.73-22.38-8.16c-6.46-6.21-9.71-14.39-9.71-24.58V32.66h13.97v64.44c0,3.37.47,6.35,1.42,8.94.97,2.59,2.12,4.57,3.45,5.96,1.34,1.36,2.87,2.51,4.65,3.37,1.75.86,3.31,1.42,4.65,1.67,1.34.25,2.67.39,3.95.39s2.62-.14,3.95-.39c1.34-.25,2.89-.81,4.65-1.67,1.78-.86,3.31-2,4.65-3.37,1.34-1.39,2.51-3.37,3.45-5.96.95-2.59,1.42-5.57,1.42-8.94V32.66h13.97Z"/>
    <path class="cls-2" d="M635.45,128.41h-13.97v-41.67h-39.44v41.67h-13.97V32.66h13.97v41.28h39.44v-41.28h13.97v95.75Z"/>
    <path class="cls-2" d="M731.99,128.41h-14.89l-10.61-28.2h-34.43l-10.61,28.2h-14.75l36.38-95.75h12.53l36.38,95.75ZM676.98,87.41h24.72l-12.16-36.63h-.25l-12.3,36.63Z"/>
    <path class="cls-2" d="M844.8,128.41h-13.97V47.55h-.39l-32.21,80.86h-8.41l-32.34-80.86h-.25v80.86h-13.97V32.66h21.99l28.73,73.37,28.84-73.37h21.99v95.75Z"/>
    <path class="cls-2" d="M965.64,128.41h-13.97V47.55h-.39l-32.21,80.86h-8.41l-32.34-80.86h-.25v80.86h-13.97V32.66h21.99l28.73,73.37,28.84-73.37h21.99v95.75Z"/>
    <path class="cls-2" d="M1035.25,128.41h-51.63V32.66h51.63v12.83h-37.66v28.2h37.66v12.8h-37.66v29.12h37.66v12.8Z"/>
    <path class="cls-2" d="M1050.9,128.41V32.66h31.06c17.51,0,30.54,5.87,39.05,17.62,6.57,9.13,9.85,19.32,9.85,30.51,0,6.49-1.14,12.86-3.37,19.15-2.25,6.32-5.15,11.19-8.68,14.64-9.3,9.21-21.77,13.83-37.38,13.83h-30.54ZM1064.87,45.49v70.12h16.7c4.48,0,8.71-.61,12.67-1.81,3.98-1.22,7.71-3.09,11.19-5.62,3.51-2.56,6.29-6.18,8.35-10.88,2.06-4.7,3.12-10.19,3.12-16.51,0-3.87-.64-7.77-1.89-11.69-1.25-3.92-3.17-7.71-5.76-11.33-2.59-3.62-6.24-6.57-10.99-8.85-4.73-2.28-10.22-3.42-16.42-3.42h-16.95Z"/>
    <path class="cls-2" d="M389.55,222.27h-11.09v-65.79h-14.58v-10.18h40.24v10.18h-14.58v65.79Z"/>
    <path class="cls-2" d="M471.38,222.27h-11.81l-8.41-22.37h-27.32l-8.41,22.37h-11.7l28.86-75.97h9.94l28.86,75.97ZM427.74,189.74h19.61l-9.65-29.06h-.2l-9.76,29.06Z"/>
    <path class="cls-2" d="M518.17,222.27h-37.48v-75.97h11.09v65.81h26.39v10.16Z"/>
    <path class="cls-2" d="M579.34,222.27h-11.09v-33.06h-31.29v33.06h-11.09v-75.97h11.09v32.75h31.29v-32.75h11.09v75.97Z"/>
    <path class="cls-2" d="M655.93,222.27h-11.81l-8.41-22.37h-27.32l-8.41,22.37h-11.7l28.86-75.97h9.94l28.86,75.97ZM612.29,189.74h19.61l-9.65-29.06h-.2l-9.76,29.06Z"/>
    <path class="cls-2" d="M726.36,222.27h-40.97v-75.97h40.97v10.18h-29.88v22.37h29.88v10.16h-29.88v23.1h29.88v10.16Z"/>
    <path class="cls-2" d="M786.91,222.27h-13.85l-19.41-28.33-5.85-.11v-6.76,35.2h-11.09v-75.97h23.52c9.03,0,15.77,2.12,20.21,6.38,4.66,4.44,6.98,10.42,6.98,17.95,0,3.75-.62,7.13-1.83,10.11-1.24,2.98-2.69,5.26-4.37,6.82-1.68,1.57-3.6,2.87-5.74,3.91-2.16,1.02-4.02,1.68-5.59,1.99-1.59.31-2.98.46-4.22.46l21.24,28.33ZM747.8,156.48v29.04h7.6c1.44,0,2.78-.04,4-.11,1.24-.07,2.98-.38,5.23-.93,2.27-.53,4.17-1.28,5.7-2.25,1.55-.95,2.94-2.45,4.17-4.46,1.21-2.01,1.83-4.39,1.83-7.13,0-3.75-1.37-7.07-4.11-9.92-2.74-2.83-6.98-4.24-12.72-4.24h-11.7Z"/>
    <path class="cls-2" d="M867.8,165.4h-12.94c-1.17-1.3-2.21-2.39-3.14-3.22-.91-.86-2.27-1.92-4.11-3.2-1.81-1.26-3.86-2.23-6.14-2.92-2.3-.68-4.75-1.04-7.35-1.04-7.8,0-14.44,2.92-19.92,8.75-5.45,5.81-8.19,12.72-8.19,20.71s2.85,15.04,8.57,20.65c5.7,5.61,12.26,8.41,19.65,8.41,11.97,0,20.45-3.56,25.46-10.67l-.22-11.09h-29.77v-10.18l40.97.11v25.86c-1.63,2.96-3.93,5.52-6.87,7.71-2.96,2.19-6.16,3.86-9.65,5.04-3.49,1.15-6.93,2.01-10.34,2.56-3.38.55-6.71.82-10,.82-10.95,0-20.16-3.84-27.65-11.55-7.51-7.69-11.24-16.92-11.24-27.67s3.73-20.36,11.24-28.07c7.49-7.69,16.67-11.55,27.56-11.55,6.76,0,13.25,1.79,19.43,5.34,6.21,3.56,11.09,8.61,14.64,15.19Z"/>
    <path class="cls-2" d="M934.72,146.3v51.43c0,8.08-2.56,14.58-7.71,19.5-5.19,4.31-11.11,6.47-17.76,6.47s-12.57-2.16-17.76-6.47c-5.12-4.92-7.71-11.42-7.71-19.5v-51.43h11.09v51.12c0,2.67.38,5.04,1.13,7.09.77,2.05,1.68,3.62,2.74,4.73,1.06,1.08,2.27,1.99,3.69,2.67,1.39.68,2.63,1.13,3.69,1.33,1.06.2,2.12.31,3.14.31s2.08-.11,3.14-.31c1.06-.2,2.3-.64,3.69-1.33,1.41-.68,2.63-1.59,3.69-2.67,1.06-1.1,1.99-2.67,2.74-4.73.75-2.05,1.13-4.42,1.13-7.09v-51.12h11.09Z"/>
    <path class="cls-2" d="M1010.38,222.27h-11.51l-37.56-58.72h-.2v58.72h-11.09v-75.97h12.1l36.95,57.79h.22v-57.79h11.09v75.97Z"/>
    <path class="cls-2" d="M1065.7,222.27h-40.97v-75.97h40.97v10.18h-29.88v22.37h29.88v10.16h-29.88v23.1h29.88v10.16Z"/>
    <path class="cls-2" d="M1107.46,222.27h-11.09v-27.41l-23.61-48.56h12.43l16.72,35.62,16.63-35.62h12.32l-23.41,48.56v27.41Z"/>
  </g>
  <rect class="cls-3" x="364.03" y="269.42" width="327.23" height="5.43"/>
  <text class="cls-1" transform="translate(700.94 289) scale(.98 1)"><tspan x="0" y="0">F</tspan><tspan class="cls-4" x="23.99" y="0">r</tspan><tspan x="39.01" y="0">ont-End D</tspan><tspan class="cls-5" x="253.76" y="0">e</tspan><tspan class="cls-6" x="280.36" y="0">v</tspan><tspan x="302.13" y="0">eloper</tspan></text>
</svg>